<svg width="600" height="194" viewBox="0 0 600 194" fill="none" xmlns="http://www.w3.org/2000/svg"><script xmlns=""/>
<g clip-path="url(#clip0_16_44165)">
<path d="M412.456 148.775C405.878 142.196 395.7 140.848 387.625 145.485C355.123 164.183 306.188 142.061 304.745 101.039C302.494 68.6586 328.094 41.6971 359.989 41.6971V0.10911C295.12 -3.16671 247.911 67.9441 267.579 129.281C277.946 161.595 305.81 184.849 339.013 191.805C364.384 197.13 388.515 192.506 408.264 181.142C419.965 174.401 422.001 158.319 412.443 148.775H412.456Z" fill="white"/>
<path d="M406.161 0.109253H387.692V41.6973L540.051 194.056H600L406.161 0.109253Z" fill="white"/>
<path d="M595.39 0.163176L535.441 0.109253L511.513 24.0375C503.222 32.3282 503.222 45.755 511.513 54.0321C519.803 62.3228 533.23 62.3228 541.507 54.0321L595.39 0.163176Z" fill="white"/>
<path d="M185.239 8.72343L0 194.056H59.9488L193.853 60.1524V115.1C193.853 126.572 203.155 135.874 214.627 135.874C226.099 135.874 235.4 126.572 235.4 115.1V29.4837C235.4 13.2664 222.257 0.109253 206.026 0.109253C198.234 0.109253 190.766 3.20982 185.252 8.70995L185.239 8.72343Z" fill="#D3D812"/>
</g>
<defs>
<clipPath id="clip0_16_44165">
<rect width="600" height="194" fill="white"/>
</clipPath>
</defs>
</svg>