<?xml version="1.0" encoding="UTF-8"?>
<svg xmlns="http://www.w3.org/2000/svg" width="800" height="215" viewBox="0 0 800 215" fill="none">
  <path d="M37.9962 91.9928C25.4758 91.9928 18.3078 82.4039 18.3078 66.3468C18.3078 49.9114 25.8919 41.4573 38.9986 41.4573C46.9988 41.4573 54.0533 46.3747 56.5876 55.226L73.6093 51.8783C68.6919 34.8567 55.7176 25.9486 38.5446 25.9486C13.8065 25.9675 0 43.1216 0 67.3491C0 93.0897 15.4708 107.596 38.2799 107.596C56.72 107.596 69.9402 98.1395 74.1578 81.4393L56.8524 78.054C54.337 86.9052 46.9988 91.9928 37.9962 91.9928Z" fill="#D3D812"></path>
  <path d="M86.9241 104.797H104.816V42.9892H139.578V28.5209H86.9241V104.797Z" fill="#D3D812"></path>
  <path d="M187.503 83.5197L168.231 28.5209H148.675L178.917 102.66V126.641H196.809V102.66L226.37 28.5209H207.362L187.503 83.5197Z" fill="#D3D812"></path>
  <path d="M277.586 25.8351C266.484 25.8351 258.862 30.2041 254.777 36.6724L254.91 28.5397H237.188L237.056 126.641H253.661V95.643C257.746 101.979 265.331 107.747 277.151 107.747C297.71 107.747 311.762 90.1582 311.762 66.6304C311.781 46.942 301.946 25.8351 277.586 25.8351ZM274.182 92.2764C262.513 92.2764 254.493 83.3874 254.493 68.919V64.8337C254.493 50.0627 262.115 40.8899 273.766 40.8899C285.057 40.8899 293.322 48.6442 293.322 66.3656C293.322 79.8884 288.556 92.2764 274.182 92.2764Z" fill="#D3D812"></path>
  <path d="M349.133 4.29333H335.194C335.194 16.965 331.695 28.5209 319.175 28.5209V42.9892H331.393V104.797H374.76V90.0258H349.133V42.9892H374.741V28.5209H349.133V4.29333Z" fill="#D3D812"></path>
  <path d="M421.381 25.6839C392.653 25.6839 382.969 48.2092 382.969 66.4791C382.969 85.3354 392.653 107.728 421.381 107.728C450.072 107.728 459.794 85.3354 459.794 66.4791C459.794 48.2092 450.072 25.6839 421.381 25.6839ZM421.381 92.5413C408.123 92.5413 401.372 81.8554 401.372 66.4791C401.372 51.7081 408.123 41.0034 421.381 41.0034C434.602 41.0034 441.354 51.6892 441.354 66.4791C441.354 81.8554 434.602 92.5413 421.381 92.5413Z" fill="#D3D812"></path>
  <path d="M482.356 42.6488H523.568V55.9068C520.617 55.7744 517.686 55.6041 514.981 55.6041C485.004 55.6041 473.486 67.5761 473.486 82.3471C473.486 96.8534 484.588 107.407 502.48 107.407C512.315 107.407 521.166 103.454 527.086 95.5673V104.456H541.441V28.1803H482.338V42.6488H482.356ZM523.7 77.9782C523.7 84.4465 516.816 92.6169 505.846 92.6169C495.293 92.6169 491.34 87.397 491.34 81.3637C491.34 74.3092 496.56 69.108 516.665 69.108C519.048 69.108 521.298 69.2405 523.681 69.3918V77.9782H523.7Z" fill="white"></path>
  <path d="M740.897 28.1803V42.6488H782.108V55.9068C779.158 55.7744 776.226 55.6041 773.521 55.6041C743.544 55.6041 732.026 67.5761 732.026 82.3471C732.026 96.8534 743.128 107.407 761.02 107.407C770.855 107.407 779.706 103.454 785.626 95.5673V104.456H799.981V28.1803H740.897ZM782.24 77.9782C782.24 84.4465 775.356 92.6169 764.387 92.6169C753.833 92.6169 749.88 87.397 749.88 81.3637C749.88 74.3092 755.1 69.108 775.205 69.108C777.588 69.108 779.838 69.2405 782.221 69.3918V77.9782H782.24Z" fill="white"></path>
  <path d="M609.925 3.95282V36.1806C605.839 29.7124 598.255 25.3434 587.116 25.3434C562.793 25.3434 552.921 46.4503 552.921 66.29C552.921 89.5152 566.444 107.255 588.666 107.255C601.603 107.255 608.222 101.203 611.608 94.7351V104.286H627.684L627.665 3.95282H609.925ZM610.643 69.8078C610.643 82.8956 602.605 91.7469 590.501 91.7469C576.146 91.7469 571.361 79.3968 571.361 65.8551C571.361 48.1336 579.664 40.3792 590.917 40.3792C603.021 40.3792 610.643 49.5521 610.643 62.9047V69.8078Z" fill="white"></path>
  <path d="M642.55 104.286H660.404V42.4975H695.185V28.0102H642.55V104.286Z" fill="white"></path>
  <path d="M723.157 6.10352e-05H705.17V17.3054H723.157V6.10352e-05Z" fill="#D3D812"></path>
  <path d="M723.024 28.0102H705.17V104.286H723.024V28.0102Z" fill="white"></path>
  <path d="M42.8379 214.322V167.607H48.4929V190.775H49.0413L70.0348 167.607H77.4297L57.817 188.676L77.4297 214.322H70.5832L54.337 192.61L48.4929 199.173V214.322H42.8379Z" fill="white"></path>
  <path d="M123.237 190.964C123.237 195.901 122.348 200.156 120.57 203.731C118.792 207.324 116.353 210.085 113.251 212.033C110.149 213.981 106.612 214.946 102.622 214.946C98.6311 214.946 95.0944 213.981 91.9926 212.033C88.8909 210.085 86.4511 207.324 84.6733 203.731C82.8955 200.137 82.0066 195.882 82.0066 190.964C82.0066 186.047 82.8955 181.773 84.6733 178.198C86.4511 174.623 88.8909 171.843 91.9926 169.895C95.0944 167.947 98.6311 166.983 102.622 166.983C106.612 166.983 110.149 167.947 113.251 169.895C116.353 171.843 118.792 174.605 120.57 178.198C122.348 181.773 123.237 186.028 123.237 190.964ZM117.752 190.964C117.752 186.917 117.071 183.513 115.728 180.714C114.386 177.933 112.57 175.834 110.281 174.397C107.993 172.959 105.44 172.259 102.603 172.259C99.7659 172.259 97.2126 172.978 94.9242 174.397C92.6357 175.834 90.82 177.933 89.4772 180.714C88.1344 183.494 87.4535 186.917 87.4535 190.964C87.4535 195.012 88.1344 198.416 89.4772 201.196C90.82 203.977 92.6357 206.095 94.9242 207.513C97.2126 208.951 99.7659 209.65 102.603 209.65C105.44 209.65 107.993 208.932 110.281 207.513C112.57 206.076 114.386 203.977 115.728 201.196C117.09 198.416 117.752 195.012 117.752 190.964Z" fill="white"></path>
  <path d="M171.049 167.607V214.322H165.583L140.126 177.65H139.672V214.322H134.017V167.607H139.483L165.034 204.374H165.488V167.607H171.049Z" fill="white"></path>
  <path d="M183.645 214.322V167.607H211.655V172.619H189.3V188.411H209.556V193.423H189.3V214.322H183.645Z" fill="white"></path>
  <path d="M222.606 214.322V167.607H250.805V172.619H228.28V188.411H249.349V193.423H228.28V209.291H251.183V214.303H222.606V214.322Z" fill="white"></path>
  <path d="M262.304 214.322V167.607H278.097C281.747 167.607 284.735 168.231 287.08 169.46C289.425 170.709 291.165 172.392 292.281 174.567C293.416 176.723 293.965 179.182 293.965 181.943C293.965 184.704 293.397 187.144 292.281 189.262C291.165 191.399 289.425 193.064 287.099 194.274C284.773 195.484 281.803 196.09 278.172 196.09H265.406V190.983H278.002C280.498 190.983 282.503 190.624 284.035 189.886C285.567 189.149 286.664 188.127 287.364 186.766C288.064 185.423 288.404 183.815 288.404 181.943C288.404 180.07 288.045 178.444 287.364 177.044C286.664 175.645 285.548 174.567 284.016 173.791C282.484 173.016 280.442 172.638 277.926 172.638H267.978V214.341H262.304V214.322ZM284.3 193.328L295.799 214.322H289.236L277.926 193.328H284.3Z" fill="white"></path>
  <path d="M304.65 214.322V167.607H332.85V172.619H310.305V188.411H331.374V193.423H310.305V209.291H333.209V214.303H304.65V214.322Z" fill="white"></path>
  <path d="M381.399 167.607V214.322H375.933L350.477 177.65H350.023V214.322H344.368V167.607H349.834L375.385 204.374H375.839V167.607H381.399Z" fill="white"></path>
  <path d="M431.594 182.208H425.939C425.598 180.581 425.031 179.144 424.199 177.914C423.367 176.685 422.364 175.645 421.192 174.794C420.019 173.943 418.714 173.319 417.277 172.884C415.839 172.449 414.364 172.241 412.813 172.241C409.995 172.241 407.423 172.959 405.135 174.378C402.846 175.815 401.03 177.914 399.688 180.695C398.345 183.475 397.664 186.898 397.664 190.945C397.664 194.993 398.345 198.397 399.688 201.177C401.03 203.958 402.846 206.076 405.135 207.494C407.423 208.932 409.976 209.631 412.813 209.631C414.364 209.631 415.858 209.423 417.277 208.988C418.714 208.553 420 207.929 421.192 207.078C422.364 206.227 423.367 205.187 424.199 203.958C425.031 202.709 425.617 201.291 425.939 199.683H431.594C431.159 202.066 430.402 204.203 429.268 206.095C428.152 207.986 426.752 209.575 425.069 210.899C423.405 212.223 421.513 213.206 419.452 213.906C417.371 214.587 415.158 214.927 412.794 214.927C408.804 214.927 405.267 213.963 402.165 212.014C399.064 210.066 396.624 207.305 394.846 203.712C393.068 200.118 392.179 195.863 392.179 190.945C392.179 186.028 393.068 181.754 394.846 178.179C396.624 174.586 399.064 171.824 402.165 169.876C405.267 167.928 408.804 166.964 412.794 166.964C415.158 166.964 417.371 167.304 419.452 167.985C421.532 168.666 423.405 169.668 425.069 170.992C426.733 172.316 428.133 173.905 429.268 175.777C430.383 177.65 431.159 179.806 431.594 182.208Z" fill="white"></path>
  <path d="M447.651 167.607V214.322H441.996V167.607H447.651Z" fill="white"></path>
  <path d="M478.139 167.607H483.794V201.007C483.794 203.995 483.245 206.511 482.148 208.61C481.051 210.691 479.5 212.279 477.514 213.357C475.529 214.435 473.164 214.984 470.46 214.984C467.907 214.984 465.637 214.511 463.632 213.584C461.646 212.639 460.077 211.315 458.942 209.575C457.807 207.835 457.24 205.773 457.24 203.39H462.8C462.8 204.714 463.122 205.868 463.784 206.851C464.446 207.835 465.353 208.591 466.507 209.14C467.661 209.688 468.985 209.953 470.46 209.953C472.086 209.953 473.467 209.612 474.621 208.932C475.756 208.251 476.626 207.248 477.231 205.906C477.836 204.563 478.139 202.936 478.139 201.007V167.607Z" fill="white"></path>
  <path d="M498.301 214.322H492.362L509.516 167.607H515.36L532.514 214.322H526.575L512.618 175.002H512.258L498.301 214.322ZM500.494 196.071H524.4V201.083H500.494V196.071Z" fill="white"></path>
  <path d="M23.6224 167.21H5.73071V214.322H23.6224V167.21Z" fill="#D3D812"></path>
</svg>
