<svg width="334" height="106" viewBox="0 0 334 106" fill="none" xmlns="http://www.w3.org/2000/svg">
<path d="M112.813 78C108.905 77.9047 105.378 77.2135 102.231 75.9265C99.1332 74.5918 96.44 72.8043 94.152 70.564C91.9117 68.276 90.1718 65.6305 88.9325 62.6275C87.7408 59.6245 87.145 56.407 87.145 52.975C87.145 49.543 87.7408 46.3255 88.9325 43.3225C90.1718 40.3195 91.9117 37.6978 94.152 35.4575C96.44 33.1695 99.1332 31.3582 102.231 30.0235C105.378 28.6888 108.905 27.9977 112.813 27.95H119.892V35.4575H113.028C110.502 35.5052 108.19 35.9818 106.092 36.8875C103.995 37.7455 102.16 38.961 100.587 40.534C99.0617 42.107 97.87 43.966 97.012 46.111C96.154 48.2083 95.725 50.4963 95.725 52.975C95.725 55.4537 96.154 57.7655 97.012 59.9105C97.87 62.0078 99.0617 63.843 100.587 65.416C102.16 66.989 103.995 68.2283 106.092 69.134C108.19 69.992 110.502 70.421 113.028 70.421H119.892V78H112.813Z" fill="white"/>
<path d="M140.296 78C137.531 78 135.052 77.3565 132.86 76.0695C130.667 74.7348 128.927 72.9712 127.64 70.7785C126.401 68.5382 125.781 66.0833 125.781 63.414C125.781 61.3167 126.258 59.3385 127.211 57.4795C128.212 55.5728 129.595 53.976 131.358 52.689C129.595 51.402 128.236 49.8528 127.283 48.0415C126.329 46.1825 125.853 44.252 125.853 42.25C125.853 39.5807 126.472 37.1735 127.712 35.0285C128.999 32.8835 130.715 31.1675 132.86 29.8805C135.005 28.5935 137.388 27.95 140.01 27.95H160.173V35.529H140.939C139.748 35.529 138.651 35.8388 137.65 36.4585C136.649 37.0305 135.839 37.817 135.219 38.818C134.647 39.819 134.361 40.963 134.361 42.25C134.361 43.394 134.671 44.4665 135.291 45.4675C135.91 46.4685 136.721 47.2788 137.722 47.8985C138.723 48.4705 139.843 48.7565 141.082 48.7565H157.67V56.3355H141.511C140.081 56.3355 138.818 56.6692 137.722 57.3365C136.625 58.0038 135.767 58.8857 135.148 59.982C134.576 61.0307 134.29 62.1985 134.29 63.4855C134.29 64.7248 134.576 65.8927 135.148 66.989C135.767 68.0377 136.602 68.8957 137.65 69.563C138.747 70.1827 139.986 70.4925 141.368 70.4925H160.173V78H140.296Z" fill="white"/>
<path d="M227.435 78.854C226.434 78.854 225.552 78.4727 224.79 77.71C224.027 76.9473 223.645 76.0655 223.645 75.0645C223.645 74.0158 224.027 73.134 224.79 72.419C225.552 71.6563 226.434 71.275 227.435 71.275C228.484 71.275 229.366 71.6563 230.081 72.419C230.843 73.134 231.225 74.0158 231.225 75.0645C231.225 75.7318 231.034 76.3753 230.652 76.995C230.319 77.567 229.866 78.0198 229.294 78.3535C228.722 78.6872 228.102 78.854 227.435 78.854Z" fill="white"/>
<path d="M255.226 79.426C251.889 79.426 248.815 78.6872 246.003 77.2095C243.19 75.7318 240.95 73.563 239.282 70.703C237.613 67.843 236.779 64.3872 236.779 60.3355V26.3015H241.784V49.539H241.927C242.737 47.9183 243.858 46.4883 245.288 45.249C246.718 43.962 248.338 42.961 250.15 42.246C251.961 41.531 253.868 41.1735 255.87 41.1735C259.159 41.1735 262.138 41.9362 264.807 43.4615C267.524 44.9868 269.693 47.1557 271.314 49.968C272.934 52.7327 273.745 56.0693 273.745 59.978C273.745 63.0287 273.268 65.7695 272.315 68.2005C271.361 70.5838 270.027 72.6097 268.311 74.278C266.642 75.9463 264.688 77.2333 262.448 78.139C260.207 78.997 257.8 79.426 255.226 79.426ZM255.155 75.0645C257.586 75.0645 259.826 74.4925 261.876 73.3485C263.925 72.1568 265.57 70.4647 266.809 68.272C268.048 66.0317 268.668 63.3623 268.668 60.264C268.668 57.261 268.048 54.6632 266.809 52.4705C265.57 50.2302 263.925 48.5142 261.876 47.3225C259.874 46.1308 257.681 45.535 255.298 45.535C252.914 45.535 250.698 46.1308 248.648 47.3225C246.598 48.4665 244.954 50.1348 243.715 52.3275C242.475 54.5202 241.856 57.1895 241.856 60.3355C241.856 63.4815 242.451 66.1508 243.643 68.3435C244.882 70.5362 246.503 72.2045 248.505 73.3485C250.555 74.4925 252.771 75.0645 255.155 75.0645Z" fill="white"/>
<path d="M298.527 80.3555C294.856 80.3555 291.71 79.4975 289.089 77.7815C286.467 76.0655 284.465 73.7775 283.083 70.9175C281.7 68.0098 281.009 64.7685 281.009 61.1935C281.009 57.5708 281.772 54.3295 283.297 51.4695C284.823 48.5618 286.991 46.2738 289.804 44.6055C292.664 42.9372 296.048 42.103 299.957 42.103C303.722 42.103 306.964 42.9372 309.681 44.6055C312.445 46.2738 314.567 48.5142 316.044 51.3265C317.57 54.1388 318.332 57.3087 318.332 60.836V79.426H313.399V71.275H313.184C312.517 72.705 311.516 74.135 310.181 75.565C308.847 76.9473 307.202 78.0913 305.248 78.997C303.341 79.9027 301.101 80.3555 298.527 80.3555ZM299.599 76.0655C302.269 76.0655 304.628 75.422 306.678 74.135C308.727 72.8003 310.348 71.0128 311.54 68.7725C312.731 66.4845 313.303 63.9105 313.256 61.0505C313.256 58.2382 312.708 55.7357 311.611 53.543C310.515 51.3503 308.966 49.6105 306.964 48.3235C304.962 47.0365 302.578 46.393 299.814 46.393C296.954 46.393 294.499 47.0603 292.449 48.395C290.4 49.682 288.827 51.4695 287.73 53.7575C286.634 55.9978 286.086 58.548 286.086 61.408C286.086 64.0773 286.61 66.5322 287.659 68.7725C288.707 71.0128 290.233 72.8003 292.235 74.135C294.284 75.422 296.739 76.0655 299.599 76.0655Z" fill="white"/>
<path d="M183.371 28H167L185.796 52.9607L167 77.9214H183.371L202.166 52.9607L183.371 28ZM220.962 28H204.591L199.426 34.8852L207.603 45.7231L220.962 28ZM199.426 71.0615L204.591 77.9214H220.962L207.603 60.1983L199.426 71.0615Z" fill="white"/>
<path d="M72.8594 61.0161C74.5627 57.0334 74.9547 52.6255 73.9805 48.4121C73.0063 44.1987 70.7148 40.3918 67.4281 37.5265C64.1414 34.6612 60.0249 32.8817 55.6574 32.4381C51.2898 31.9945 46.8908 32.9092 43.0788 35.0536L40.4748 30.5663C44.4586 28.3256 48.9698 27.1521 53.5583 27.163C58.1469 27.1739 62.6523 28.3687 66.625 30.6283C78.4113 37.3243 82.9263 51.6618 77.4322 63.6175L80.9549 65.617L70.0218 71.3365L69.5887 59.1587L72.8594 61.0161ZM34.1407 44.9839C32.4374 48.9666 32.0453 53.3745 33.0196 57.5879C33.9938 61.8013 36.2853 65.6082 39.572 68.4735C42.8586 71.3388 46.9751 73.1183 51.3427 73.5619C55.7103 74.0054 60.1093 73.0908 63.9213 70.9464L66.5253 75.4337C62.5415 77.6744 58.0303 78.8479 53.4418 78.837C48.8532 78.8261 44.3478 77.6313 40.375 75.3717C28.5888 68.6757 24.0738 54.3382 29.5679 42.3825L26.0425 40.3856L36.9757 34.6661L37.4088 46.8439L34.138 44.9865L34.1407 44.9839ZM57.2144 60.3057L49.783 53L42.3595 60.3057L38.6478 56.6528L49.7857 45.6943L57.2118 53L64.6379 45.6943L68.3497 49.3472L57.2118 60.3057H57.2144Z" fill="white"/>
</svg>
