<?xml version="1.0" encoding="utf-8"?>
<!-- Generator: Adobe Illustrator 25.2.3, SVG Export Plug-In . SVG Version: 6.00 Build 0)  -->
<svg version="1.1" id="Layer_1" xmlns="http://www.w3.org/2000/svg" xmlns:xlink="http://www.w3.org/1999/xlink" x="0px" y="0px"
	 viewBox="0 0 200 49.16" style="enable-background:new 0 0 200 49.16;" xml:space="preserve">
<style type="text/css">
	.st0{fill:#4078FD;}
	.st1{fill:#F0F1F1;}
</style>
<g>
	<g>
		<path class="st0" d="M44.02,4.39h4.51v16.85h1.28l6.61-7.08h5.84l-8.29,8.91l8.29,11.75h-5.41l-7.04-9.88h-1.28v9.88h-4.51
			L44.02,4.39L44.02,4.39z"/>
		<path class="st0" d="M64.87,14.15h3.66l0.86,2.61c1.75-1.36,3.77-2.84,6.57-2.84c0.97,0,1.98,0.08,2.49,0.27v4.4
			c-0.51-0.08-1.79-0.16-2.92-0.16c-2.57,0-4.2,0.55-6.15,2.3v14.08h-4.51L64.87,14.15L64.87,14.15z"/>
		<path class="st0" d="M80.87,8.04c0-0.62,0.31-1.01,0.93-1.01h3.31C85.69,7.03,86,7.5,86,8.04V11c0,0.58-0.35,0.9-0.89,0.9H81.8
			c-0.54,0-0.93-0.35-0.93-0.9V8.04z M81.14,14.15h4.51v20.66h-4.51V14.15z"/>
		<path class="st0" d="M89.62,14.15h3.58l0.9,2.14c1.17-0.9,4.24-2.37,6.77-2.37c5.29,0,6.77,4.79,6.77,10.47
			c0,5.72-1.01,10.74-6.77,10.74c-1.75,0-4.67-0.51-6.77-1.4v11.6h-4.47C89.62,45.32,89.62,14.15,89.62,14.15z M99.97,31.35
			c1.98,0,3.15-1.17,3.15-6.81c0-4.79-1.13-6.61-3.15-6.61c-2.41,0-4.36,0.66-5.88,1.48V30.5C95.96,31.12,97.68,31.35,99.97,31.35z"
			/>
		<path class="st0" d="M109.12,15.09l3.5-0.97l0.86-5.76h3.66v5.76h5.14v3.69h-5.14v9.07c0,3.15,0.78,3.85,1.95,4.24
			c0,0,2.64,0.82,2.92,0.82v2.88h-4.28c-3.04,0-5.1-1.91-5.1-7.39v-9.61h-3.5L109.12,15.09L109.12,15.09z"/>
		<path class="st0" d="M134.22,13.96c7.04,0,9.3,2.61,9.3,10.82c0,7.67-2.18,10.23-9.3,10.23c-7.08,0-9.34-2.84-9.34-10.23
			C124.88,16.33,127.29,13.96,134.22,13.96z M134.22,31.16c3.46,0,4.79-0.43,4.79-6.38c0-6.38-1.09-7-4.79-7
			c-3.66,0-4.82,0.62-4.82,7C129.39,30.69,130.91,31.16,134.22,31.16z"/>
		<path class="st0" d="M146.4,30.88c0-0.58,0.31-0.97,0.93-0.97h2.88c0.7,0,0.97,0.35,0.97,0.97v3.03c0,0.7-0.43,0.9-0.97,0.9h-2.88
			c-0.54,0-0.93-0.35-0.93-0.9V30.88z"/>
		<path class="st0" d="M155.93,4.27h4.48v11.01c2.1-0.93,5.02-1.44,6.77-1.44c5.76,0,6.77,4.71,6.77,10.74
			c0,5.72-1.48,10.47-6.77,10.47c-2.53,0-5.56-1.48-6.73-2.41l-0.93,2.18h-3.58L155.93,4.27L155.93,4.27z M166.28,31.04
			c2.02,0,3.15-1.83,3.15-6.58c0-5.68-1.17-6.85-3.15-6.85c-2.29,0-3.97,0.23-5.84,0.85v11.09
			C161.92,30.38,163.87,31.04,166.28,31.04z"/>
		<path class="st0" d="M176.86,27.58c0-3.03,1.71-5.49,5.72-5.49c0,0,7,0.04,7,0c0,0,0.04-1.75,0-1.79c0-2.26-1.09-2.76-2.92-2.76
			c-2.18,0-6.69,0.27-9.14,0.43v-2.92c2.72-0.93,5.8-1.25,9.65-1.28c4.01-0.04,6.93,1.59,6.93,6.42v14.63h-3.5l-1.01-2.33
			c-0.15,0.27-3.85,2.61-7.12,2.57c-3.58-0.08-5.6-2.45-5.6-5.37L176.86,27.58L176.86,27.58z M183.44,31.23
			c2.57,0,6.15-1.75,6.15-1.75v-4.44l-6.3,0.47c-1.56,0.16-1.91,1.24-1.91,2.26v1.36C181.38,30.88,182.31,31.23,183.44,31.23z"/>
	</g>
	<path class="st0" d="M9.3,34.81h23.81c1.87,0,3.4-1.53,3.4-3.4V7.6c0-1.87-1.53-3.4-3.4-3.4H9.3c-1.87,0-3.4,1.53-3.4,3.4v23.81
		C5.9,33.28,7.43,34.81,9.3,34.81z"/>
	<polygon class="st1" points="9.3,22.56 19.51,11 26.31,17.8 33.11,11 33.11,16.1 26.31,22.9 19.51,16.1 9.3,27.67 	"/>
</g>
</svg>
