<?xml version="1.0"?>
<svg xmlns="http://www.w3.org/2000/svg" width="699.9999999999999" height="300" version="1.1">

 <g>
  
  <rect id="svg_1" fill="none" display="none" height="660" width="1686" class="st0"/>
  <rect id="svg_2" fill="#333D47" display="none" height="660" width="1686" class="st1" x="0"/>
  <g stroke="null" id="svg_3">
   <g stroke="null" id="svg_15">
    <path stroke="null" id="svg_16" fill="#FFFFFF" d="m452.46448,268.50223l-193.22267,0c-5.0544,0 -9.09793,-4.32344 -9.09793,-9.72774l0,-30.03246c0,-5.4043 4.04352,-9.72774 9.09793,-9.72774l193.22267,0c5.0544,0 9.09793,4.32344 9.09793,9.72774l0,30.03246c0,5.4043 -4.04352,9.72774 -9.09793,9.72774z" class="st8"/>
    <g stroke="null" id="svg_17">
     <path stroke="null" id="svg_18" fill="#FFFFFF" d="m172.73929,177.4784l46.42832,-23.39289l0,-82.60856l-82.459,-41.30428l-82.3868,41.45869c0,54.19739 0,106.31027 0,160.58487l30.83187,0c0.07221,-21.6944 0.14441,-41.30428 0.21662,-63.07588c44.912,21.46279 89.75178,42.84837 134.66378,64.31115c0,-10.96301 0,-32.96622 0,-32.96622l-47.29479,-23.00687zm-36.10289,-17.75698c-17.18498,-9.18731 -34.44216,-18.29741 -51.62713,-27.48472c0,-10.03655 0,-28.71999 0,-38.75654c17.18498,-9.26451 34.44216,-18.45182 51.62713,-27.71633c17.69042,9.26451 35.38083,18.45182 53.07125,27.71633c0,10.03655 0,28.71999 0,38.75654c-17.61821,9.18731 -35.30863,18.37462 -53.07125,27.48472z" class="st8"/>
     <polygon stroke="null" id="svg_19" fill="#FFFFFF" points="623.51997423172,119.11195778846741 623.51997423172,101.27785897254944 572.75923204422,70.01003670692444 522.0708165168762,101.27785897254944 522.0708165168762,163.8904993534088 572.75923204422,195.23537850379944 623.51997423172,163.8904993534088 623.51997423172,145.43865609169006 655.2183384895325,145.43865609169006 655.2183384895325,183.19150948524475 572.75923204422,234.0691797733307 490.37248277664185,183.19150948524475 490.37248277664185,81.35911965370178 572.75923204422,30.48147225379944 655.2183384895325,81.35911965370178 655.2183384895325,119.11195778846741 " class="st8"/>
     <polygon stroke="null" id="svg_20" fill="#FFFFFF" points="352.5316319465637,153.93113350868225 250.64933824539185,212.7607843875885 250.36056566238403,170.8388330936432 315.5622715950012,133.2403223514557 249.92720079421997,96.49116158485413 249.7106785774231,54.569256067276 352.31514024734497,112.00916695594788 461.12910509109497,49.24216866493225 461.3458104133606,91.16404366493225 389.28437852859497,132.77717232704163 461.85127305984497,173.3865931034088 462.06782579421997,215.3085596561432 " class="st8"/>
    </g>
    <g stroke="null" id="svg_21">
     <path stroke="null" id="svg_22" fill="#333D47" d="m292.96191,257.92525c-2.31058,-1.38968 -4.18794,-3.39699 -5.55985,-5.86752c-1.37191,-2.47054 -2.02176,-5.24989 -2.02176,-8.26086s0.64985,-5.79032 2.02176,-8.26086c1.37191,-2.47054 3.24926,-4.40064 5.55985,-5.86752c2.31058,-1.38968 4.83779,-2.16172 7.65381,-2.16172c2.16617,0 4.26014,0.38602 6.13749,1.23527c1.87735,0.84925 3.46588,2.00731 4.76558,3.5514l-3.17705,3.39699c-0.93868,-1.15806 -2.09397,-2.00731 -3.39367,-2.62495c-1.2997,-0.61763 -2.74382,-0.92645 -4.33235,-0.92645c-1.87735,0 -3.61029,0.46323 -5.27102,1.46688c-1.66073,0.92645 -2.88823,2.31613 -3.89911,4.09183c-1.01088,1.7757 -1.44412,3.78301 -1.44412,6.09914c0,2.31613 0.50544,4.32344 1.44412,6.09914c0.93868,1.7757 2.23838,3.08817 3.89911,4.09183c1.58853,0.92645 3.39367,1.46688 5.27102,1.46688c1.73294,0 3.17705,-0.30882 4.33235,-0.84925c1.15529,-0.54043 2.23838,-1.31247 3.10485,-2.23892c0.57765,-0.61763 1.08309,-1.46688 1.51632,-2.39333c0.43323,-0.92645 0.72206,-2.00731 0.86647,-3.08817l-9.89219,0l0,-4.32344l14.15233,0c0.14441,0.84925 0.21662,1.62129 0.21662,2.54774c0,2.00731 -0.28882,3.86021 -0.86647,5.63591c-0.57765,1.7757 -1.44412,3.39699 -2.74382,4.70946c-2.74382,3.08817 -6.35411,4.63226 -10.75866,4.63226c-2.74382,-0.0772 -5.27102,-0.77204 -7.58161,-2.16172z" class="st7"/>
     <path stroke="null" id="svg_23" fill="#333D47" d="m327.90951,228.20161l5.19882,0l10.90307,31.11332l-5.0544,0l-2.59941,-7.95204l-11.76954,0l-2.67161,7.95204l-5.0544,0l11.04748,-31.11332zm7.00396,18.68343l-3.10485,-9.26451l-1.15529,-3.6286l-0.21662,0l-1.15529,3.6286l-3.10485,9.26451l8.7369,0z" class="st7"/>
     <path stroke="null" id="svg_24" fill="#333D47" d="m347.98272,228.20161l6.13749,0l8.37587,23.5473l0.21662,0l8.37587,-23.5473l6.13749,0l0,31.11332l-4.47676,0l0,-17.44816l0.21662,-5.63591l-0.21662,0l-8.30366,23.00687l-3.68249,0l-8.30366,-23.00687l-0.21662,0l0.21662,5.63591l0,17.44816l-4.47676,0l0,-31.11332z" class="st7"/>
     <path stroke="null" id="svg_25" fill="#333D47" d="m384.0134,228.20161l17.69042,0l0,4.63226l-13.14145,0l0,8.56967l11.84175,0l0,4.63226l-11.84175,0l0,8.56967l13.14145,0l0,4.63226l-17.69042,0l0,-31.03611z" class="st7"/>
     <path stroke="null" id="svg_26" fill="#333D47" d="m409.21322,257.77084c-1.94956,-1.46688 -3.24926,-3.6286 -3.97132,-6.33075l4.33235,-1.8529c0.43323,1.69849 1.2275,3.08817 2.31058,4.16903c1.08309,1.08086 2.38279,1.62129 3.97132,1.62129c1.44412,0 2.67161,-0.38602 3.68249,-1.15806c1.01088,-0.77204 1.51632,-1.8529 1.51632,-3.24258c0,-1.23527 -0.43323,-2.31613 -1.2997,-3.16537c-0.86647,-0.84925 -2.38279,-1.62129 -4.62117,-2.47054l-1.80514,-0.69484c-1.94956,-0.69484 -3.61029,-1.7757 -4.90999,-3.08817c-1.2997,-1.38968 -2.02176,-3.16537 -2.02176,-5.4043c0,-1.54409 0.36103,-2.93376 1.15529,-4.24623c0.79426,-1.31247 1.87735,-2.31613 3.24926,-3.08817c1.37191,-0.77204 2.96044,-1.15806 4.76558,-1.15806c2.5272,0 4.54896,0.69484 6.06529,2.00731c1.51632,1.31247 2.5272,2.77935 3.03264,4.47785l-4.11573,1.8529c-0.28882,-1.00366 -0.86647,-1.8529 -1.73294,-2.62495c-0.86647,-0.77204 -1.94956,-1.15806 -3.24926,-1.15806c-1.2997,0 -2.455,0.38602 -3.32147,1.08086c-0.93868,0.69484 -1.37191,1.62129 -1.37191,2.77935c0,1.08086 0.43323,1.93011 1.2275,2.62495c0.79426,0.69484 2.09397,1.38968 3.82691,2.00731l1.80514,0.61763c2.455,0.92645 4.40455,2.16172 5.77646,3.6286c1.37191,1.46688 2.02176,3.47419 2.02176,5.94473c0,2.00731 -0.50544,3.7058 -1.44412,5.09548c-1.01088,1.38968 -2.23838,2.39333 -3.68249,3.08817c-1.51632,0.69484 -3.03264,1.00366 -4.62117,1.00366c-2.5272,-0.0772 -4.69338,-0.84925 -6.57073,-2.31613z" class="st7"/>
    </g>
   </g>
  </g>
 </g>
</svg>
